<?xml version="1.0" encoding="UTF-8"?>
<svg id="Layer_1" xmlns="http://www.w3.org/2000/svg" xmlns:xlink="http://www.w3.org/1999/xlink" version="1.1" viewBox="0 0 19.8 20">
  <!-- Generator: Adobe Illustrator 29.8.1, SVG Export Plug-In . SVG Version: 2.1.1 Build 2)  -->
  <defs>
    <style>
      .st0 {
        fill: url(#New_Gradient_Swatch_1);
      }
    </style>
    <linearGradient id="New_Gradient_Swatch_1" data-name="New Gradient Swatch 1" x1="9.9" y1="1.3" x2="9.9" y2="14.8" gradientUnits="userSpaceOnUse">
      <stop offset="0" stop-color="#fff"/>
      <stop offset="1" stop-color="#00d2ff"/>
    </linearGradient>
  </defs>
  <path class="st0" d="M5.5,2.9c1.2-1.1,2.8-1.6,4.4-1.7,3.3,0,6.1,2.5,6.4,5.6,2,.3,3.5,1.9,3.5,3.9s-1.8,4-4.1,4H4.7C2.2,14.8,0,12.8,0,10.3s1.6-4,3.6-4.4c.2-1.1.9-2.1,1.8-2.9M6.3,3.9c-.9.8-1.4,1.8-1.4,2.5v.6h-.5c-1.7.2-3,1.7-3,3.3s1.5,3.3,3.4,3.3h11c1.6,0,2.8-1.2,2.8-2.7s-1.3-2.7-2.8-2.7h-.6v-.6c0-2.7-2.3-5-5.2-5-1.3,0-2.6.5-3.6,1.4h0Z"/>
</svg>