<?xml version="1.0" encoding="utf-8"?>
<svg xmlns="http://www.w3.org/2000/svg" width="20" height="20" viewBox="0 0 20 20" fill="none">
<path d="M19.0476 2.57827C19.0476 2.42238 18.918 2.29274 18.7621 2.29274H1.24535C1.08949 2.29278 0.959821 2.42241 0.959821 2.57827C0.959815 2.60432 0.95641 2.62963 0.952381 2.65454V13.2405C0.952381 13.3964 1.08202 13.526 1.23791 13.526H9.37965L9.43917 13.5297C9.57751 13.5472 9.70279 13.6248 9.77958 13.7436L12.1661 17.4378L14.5545 13.7436L14.5898 13.6953C14.6796 13.5886 14.813 13.526 14.9544 13.526H18.7621C18.918 13.526 19.0476 13.3964 19.0476 13.2405V2.57827ZM20 13.2405C20 13.9223 19.444 14.4784 18.7621 14.4784H15.2139L12.6962 18.3735L12.6925 18.3791C12.4431 18.7531 11.89 18.7532 11.6406 18.3791L11.6369 18.3735L9.12016 14.4784H1.23791C0.556037 14.4784 0 13.9223 0 13.2405V2.57827C0 2.54115 0.00498365 2.50507 0.0130208 2.47038C0.0679357 1.83872 0.599829 1.3404 1.24535 1.34036H18.7621C19.444 1.34036 20 1.8964 20 2.57827V13.2405Z" fill="url(#paint0_linear_8805_7551)"/>
<path d="M16.0445 7.57232C16.2305 7.75828 16.2305 8.05972 16.0445 8.24568L12.8675 11.4237L12.1941 10.7503L15.0345 7.909L12.1941 5.0686L12.8675 4.39523L16.0445 7.57232Z" fill="url(#paint1_linear_8805_7551)"/>
<path d="M7.79793 5.0686L4.9566 7.909L7.79793 10.7503L7.12457 11.4237L3.94749 8.24568C3.76171 8.0597 3.76158 7.75822 3.94749 7.57232L7.12457 4.39523L7.79793 5.0686Z" fill="url(#paint2_linear_8805_7551)"/>
<path d="M11.609 4.77842L11.4509 5.22764L9.28105 11.3577L8.38354 11.0405L8.54166 10.5913L10.7115 4.46127L11.609 4.77842Z" fill="white"/>
<defs>
<linearGradient id="paint0_linear_8805_7551" x1="10" y1="1.34036" x2="10" y2="18.6596" gradientUnits="userSpaceOnUse">
<stop stop-color="white"/>
<stop offset="1" stop-color="#00D2FF"/>
</linearGradient>
<linearGradient id="paint1_linear_8805_7551" x1="14.189" y1="4.39523" x2="14.189" y2="11.4237" gradientUnits="userSpaceOnUse">
<stop stop-color="white"/>
<stop offset="1" stop-color="#00D2FF"/>
</linearGradient>
<linearGradient id="paint2_linear_8805_7551" x1="5.80302" y1="4.39523" x2="5.80302" y2="11.4237" gradientUnits="userSpaceOnUse">
<stop stop-color="white"/>
<stop offset="1" stop-color="#00D2FF"/>
</linearGradient>
</defs>
</svg>