<?xml version="1.0" encoding="UTF-8"?>
<svg id="Layer_1" xmlns="http://www.w3.org/2000/svg" xmlns:xlink="http://www.w3.org/1999/xlink" version="1.1" viewBox="0 0 40 40">
  <!-- Generator: Adobe Illustrator 29.8.3, SVG Export Plug-In . SVG Version: 2.1.1 Build 3)  -->
  <defs>
    <style>
      .st0 {
        fill: none;
        stroke: url(#linear-gradient);
        stroke-linecap: round;
        stroke-linejoin: round;
        stroke-width: 2.3px;
      }
    </style>
    <linearGradient id="linear-gradient" x1="20" y1=".5" x2="20" y2="39.5" gradientUnits="userSpaceOnUse">
      <stop offset="0" stop-color="#fff"/>
      <stop offset="1" stop-color="#00d2ff"/>
    </linearGradient>
  </defs>
  <path class="st0" d="M13.9,1.7h12.2c2,0,3.7,1.6,3.7,3.7v29.4c0,2-1.6,3.7-3.7,3.7h-12.2c-2,0-3.7-1.6-3.7-3.7V5.4c0-2,1.6-3.7,3.7-3.7ZM13.9,1.7h1.8c.3,0,.6.3.6.6h0c0,.7.5,1.2,1.2,1.2h4.9c.7,0,1.2-.5,1.2-1.2h0c0-.3.3-.6.6-.6h1.8M6.6,23.8c-2.6-2.7-2.6-7,0-9.8M3.9,25.8c-3.5-3.9-3.5-9.7,0-13.6M16.7,2.5h6.9M33.5,14.1c2.6,2.7,2.6,7,0,9.8M36.2,12.2c3.5,3.9,3.5,9.7,0,13.6"/>
</svg>