<?xml version="1.0" encoding="UTF-8"?>
<svg id="Layer_1" xmlns="http://www.w3.org/2000/svg" xmlns:xlink="http://www.w3.org/1999/xlink" version="1.1" viewBox="0 0 676 512">
  <!-- Generator: Adobe Illustrator 29.8.1, SVG Export Plug-In . SVG Version: 2.1.1 Build 2)  -->
  <defs>
    <style>
      .st0 {
        stroke: url(#linear-gradient2);
      }

      .st0, .st1, .st2, .st3 {
        stroke-width: 18px;
      }

      .st0, .st1, .st2, .st3, .st4, .st5 {
        fill: none;
        stroke-linecap: round;
        stroke-linejoin: round;
      }

      .st1 {
        stroke: url(#linear-gradient4);
      }

      .st2 {
        stroke: url(#linear-gradient5);
      }

      .st3 {
        stroke: url(#linear-gradient3);
      }

      .st4 {
        stroke: url(#linear-gradient1);
        stroke-width: 14px;
      }

      .st5 {
        stroke: url(#linear-gradient);
        stroke-width: 17px;
      }
    </style>
    <linearGradient id="linear-gradient" x1="342.7" y1="7.5" x2="342.7" y2="504.5" gradientUnits="userSpaceOnUse">
      <stop offset="0" stop-color="#fff"/>
      <stop offset="1" stop-color="#00d2ff"/>
    </linearGradient>
    <linearGradient id="linear-gradient1" x1="342.7" y1="15.7" x2="342.7" y2="45" gradientUnits="userSpaceOnUse">
      <stop offset="0" stop-color="#fff"/>
      <stop offset="1" stop-color="#eefbfe"/>
    </linearGradient>
    <linearGradient id="linear-gradient2" x1="552.3" y1="149.8" x2="552.3" y2="348.6" gradientUnits="userSpaceOnUse">
      <stop offset="0" stop-color="#fff"/>
      <stop offset="1" stop-color="#00d2ff"/>
    </linearGradient>
    <linearGradient id="linear-gradient3" x1="602.9" y1="114.1" x2="602.9" y2="384.2" xlink:href="#linear-gradient2"/>
    <linearGradient id="linear-gradient4" x1="132.1" y1="149.8" x2="132.1" y2="348.6" gradientUnits="userSpaceOnUse">
      <stop offset="0" stop-color="#fff"/>
      <stop offset="1" stop-color="#00d2ff"/>
    </linearGradient>
    <linearGradient id="linear-gradient5" x1="81.5" y1="114.1" x2="81.5" y2="384.2" xlink:href="#linear-gradient4"/>
  </defs>
  <g>
    <path class="st5" d="M422.7,16h-160c-26.5,0-48,21.5-48,48v384c0,26.5,21.5,48,48,48h160c26.5,0,48-21.5,48-48V64c0-26.5-21.5-48-48-48ZM374.7,37.9h-64c-8.8.8-16-6.4-16-15.2h96c0,8.8-7.2,16-16,15.2Z"/>
    <path class="st4" d="M310.7,37.9h64c8.8.8,16-6.4,16-15.2h-96c0,8.8,7.2,16,16,15.2Z"/>
  </g>
  <g id="right_curves">
    <path class="st0" d="M534.5,339.6c47.6-50.9,47.6-129.9,0-180.7"/>
    <path class="st3" d="M578.8,375.2c64.1-71.8,64.1-180.3,0-252.1"/>
  </g>
  <g id="left_curves">
    <path class="st1" d="M149.9,158.8c-47.6,50.9-47.6,129.9,0,180.7"/>
    <path class="st2" d="M105.6,123.1c-64.1,71.8-64.1,180.3,0,252.1"/>
  </g>
</svg>