<?xml version="1.0" encoding="UTF-8"?>
<svg id="Layer_1" xmlns="http://www.w3.org/2000/svg" version="1.1" viewBox="0 0 111 35">
  <!-- Generator: Adobe Illustrator 30.0.0, SVG Export Plug-In . SVG Version: 2.1.1 Build 123)  -->
  <defs>
    <style>
      .st0 {
        fill: #c8f169;
      }
    </style>
  </defs>
  <path class="st0" d="M36,27.4c0-.3,0-.5,0-.6-.1-.4-.5-.8-.9-.9-.1,0-.3,0-.7,0h-1.1c-.3,0-.5,0-.7,0-.4-.1-.8-.4-.9-.9,0-.1,0-.3,0-.6v-8.1c0-.3,0-.5,0-.6.1-.4.5-.8.9-.9.1,0,.3,0,.7,0h1.1c.3,0,.5,0,.7,0,.4-.1.8-.4.9-.9,0-.1,0-.3,0-.6V1.6c0-.3,0-.5,0-.6-.1-.4-.5-.8-.9-.9-.1,0-.3,0-.7,0h-6.9c-.2,0-.3,0-.4,0-.3,0-.6.2-.8.5,0,0-.1.2-.2.4l-6.7,12.7L12.9.9c0-.2-.1-.3-.2-.4-.2-.3-.5-.4-.8-.5-.1,0-.2,0-.4,0H2.1c-.3,0-.5,0-.7,0-.4.1-.8.4-.9.9,0,.1,0,.3,0,.6v5.3c0,.3,0,.5,0,.6.1.4.5.8.9.9.1,0,.3,0,.7,0h1.1c.3,0,.5,0,.7,0,.4.1.8.4.9.9,0,.1,0,.3,0,.6v7.6c0,.3,0,.5,0,.6-.1.4-.5.8-.9.9-.1,0-.3,0-.7,0h-1.1c-.3,0-.5,0-.7,0-.4.1-.8.4-.9.9,0,.1,0,.3,0,.6v12.5c0,.3,0,.5,0,.6.1.4.5.8.9.9.1,0,.3,0,.7,0h9.6c.3,0,.5,0,.7,0,.4-.1.8-.4.9-.9,0-.1,0-.3,0-.6v-5.8c0-.3,0-.5,0-.6-.1-.4-.5-.8-.9-.9-.1,0-.3,0-.7,0h-1.1c-.3,0-.5,0-.7,0-.4-.1-.8-.4-.9-.9,0-.1,0-.3,0-.6v-11.8l6.9,13.4c.2.4.3.5.4.6.3.3.8.3,1.1,0,0,0,.2-.3.4-.6l7.7-14.2v12.6c0,.3,0,.5,0,.6-.1.4-.5.8-.9.9-.1,0-.3,0-.7,0h-2.1c-.3,0-.5,0-.7,0-.4.1-.8.4-.9.9,0,.1,0,.3,0,.6v5.8c0,.3,0,.5,0,.6.1.4.5.8.9.9.1,0,.3,0,.7,0h12.6c.3,0,.5,0,.7,0,.4-.1.8-.4.9-.9,0-.1,0-.3,0-.6v-5.8h0Z"/>
  <path class="st0" d="M60.1,12.9c-.6-1.9-2.2-3.5-4.2-4.1-1-.3-2.2-.3-4.6-.3h-3.6c-2.4,0-3.6,0-4.6.3-2,.6-3.5,2.2-4.2,4.1-.3,1-.3,2.2-.3,4.5v8.5c0,2.4,0,3.6.3,4.5.6,1.9,2.2,3.5,4.2,4.1,1,.3,2.2.3,4.6.3h3.6c2.4,0,3.6,0,4.6-.3,2-.6,3.5-2.2,4.2-4.1.3-1,.3-2.2.3-4.5v-8.5c0-2.4,0-3.6-.3-4.5ZM55.6,22.1c0,1,0,1.5-.1,1.9-.3.8-.9,1.5-1.8,1.7-.4.1-.9.1-2,.1h-4.5c-1,0-1.5,0-2-.1-.8-.3-1.5-.9-1.8-1.7-.1-.4-.1-.9-.1-1.9v-.8c0-1,0-1.5.1-1.9.3-.8.9-1.5,1.8-1.7.4-.1.9-.1,2-.1h4.5c1,0,1.5,0,2,.1.8.3,1.5.9,1.8,1.7.1.4.1.9.1,1.9v.8Z"/>
  <path class="st0" d="M85.3.7c0-.3-.3-.5-.6-.6-.1,0-.3,0-.7,0h-3.8c-.4,0-.5,0-.7,0-.3,0-.5.3-.6.6,0,.1,0,.3,0,.7v5.5c0,.4,0,.7,0,.9-.1.4-.4.7-.8.8-.2,0-.4,0-.9,0h-4.5c-2.4,0-3.6,0-4.6.3-2,.6-3.5,2.2-4.2,4.1-.3,1-.3,2.2-.3,4.5v8.5c0,2.4,0,3.6.3,4.5.6,1.9,2.2,3.5,4.2,4.1,1,.3,2.2.3,4.6.3h3.6c2.4,0,3.6,0,4.6-.3,2-.6,3.5-2.2,4.2-4.1.3-1,.3-2.2.3-4.5V1.3c0-.4,0-.5,0-.7h0ZM79.9,22.1c0,1,0,1.5-.1,1.9-.3.8-.9,1.5-1.8,1.7-.4.1-.9.1-2,.1h-3.9c-1,0-1.5,0-2-.1-.8-.3-1.5-.9-1.8-1.7-.1-.4-.1-.9-.1-1.9v-.8c0-1,0-1.5.1-1.9.3-.8.9-1.5,1.8-1.7.4-.1.9-.1,2-.1h3.9c1,0,1.5,0,2,.1.8.3,1.5.9,1.8,1.7.1.4.1.9.1,1.9v.8Z"/>
  <path class="st0" d="M97.5,28.8c-1,0-1.5,0-2-.1-.8-.3-1.5-.9-1.8-1.7,0-.3-.1-.6-.1-1h15.6c.6,0,1.1-.5,1.1-1.1v-7.3c0-2.4,0-3.6-.3-4.5-.6-1.9-2.2-3.5-4.2-4.1-1-.3-2.2-.3-4.6-.3h-3.6c-2.4,0-3.6,0-4.6.3-2,.6-3.5,2.2-4.2,4.1-.3,1-.3,2.2-.3,4.5v8.5c0,2.4,0,3.6.3,4.5.6,1.9,2.2,3.5,4.2,4.1,1,.3,2.2.3,4.6.3h6.5c3.1,0,5.6-2.1,6.1-5,.1-.6-.3-1.1-1-1.1h-11.8ZM93.7,19.4c.3-.8.9-1.5,1.8-1.7.4-.1.9-.1,2-.1h3.8c1,0,1.5,0,2,.1.8.3,1.5.9,1.8,1.7.1.4.1.9.1,1.9v.4h-11.6v-.4c0-1,0-1.5.1-1.9Z"/>
</svg>