<?xml version="1.0" encoding="UTF-8"?>
<svg id="Layer_1" xmlns="http://www.w3.org/2000/svg" xmlns:xlink="http://www.w3.org/1999/xlink" version="1.1" viewBox="0 0 40 40">
  <!-- Generator: Adobe Illustrator 29.8.3, SVG Export Plug-In . SVG Version: 2.1.1 Build 3)  -->
  <defs>
    <style>
      .st0 {
        fill: none;
        stroke: url(#linear-gradient);
        stroke-linecap: round;
        stroke-miterlimit: 10;
        stroke-width: 2px;
      }
    </style>
    <linearGradient id="linear-gradient" x1="20.1" y1=".2" x2="20.1" y2="39.8" gradientUnits="userSpaceOnUse">
      <stop offset="0" stop-color="#fff"/>
      <stop offset="1" stop-color="#00d2ff"/>
    </linearGradient>
  </defs>
  <path class="st0" d="M3.3,8.7,3.3,24.1c0,3.9,7.5,7.1,16.7,7.1s16.6-3.2,16.6-7.1l.3-7.7c0,3.9-7.6,7.1-16.9,7.1S3.3,20.5,3.3,16.6v-8c0,0,0,23.1,0,23.1,0,3.9,7.5,7.1,16.8,7.1s16.8-3.2,16.8-7.1c0,0,.2-21.8,0-23-.4-2.9-4.4-7.5-17.4-7.5S3.4,7.1,3.4,8.4c0,2.2,4.8,6.6,16.5,6.6s16.7-4.3,16.8-6.6"/>
</svg>